<svg width="32" height="32" viewBox="0 0 32 32" fill="none" xmlns="http://www.w3.org/2000/svg">
<path d="M2 6.5C2 4.568 3.568 3 5.5 3H26.5C28.432 3 30 4.568 30 6.5V15.14L27.18 12.32C26.7621 11.9021 26.2661 11.5707 25.7201 11.3445C25.1741 11.1184 24.589 11.002 23.998 11.002C23.407 11.002 22.8219 11.1184 22.2759 11.3445C21.7299 11.5707 21.2339 11.9021 20.816 12.32L13.32 19.82C12.9014 20.237 12.5693 20.7326 12.3428 21.2783C12.1162 21.824 11.9998 22.4091 12 23H5.5C4.57174 23 3.6815 22.6313 3.02513 21.9749C2.36875 21.3185 2 20.4283 2 19.5V6.5ZM22.232 13.732C22.7008 13.2636 23.3363 13.0005 23.999 13.0005C24.6617 13.0005 25.2972 13.2636 25.766 13.732L29.266 17.232C29.4982 17.4642 29.6824 17.7398 29.8081 18.0431C29.9338 18.3465 29.9985 18.6716 29.9985 19C29.9985 19.3284 29.9338 19.6535 29.8081 19.9569C29.6824 20.2602 29.4982 20.5358 29.266 20.768L24.114 25.918L17.08 18.886L22.234 13.732H22.232ZM15.88 20.082L14.73 21.232C14.4978 21.4642 14.3136 21.7398 14.1879 22.0431C14.0622 22.3465 13.9975 22.6716 13.9975 23C13.9975 23.3284 14.0622 23.6535 14.1879 23.9569C14.3136 24.2602 14.4978 24.5358 14.73 24.768L18.23 28.266C18.6988 28.7344 19.3343 28.9975 19.997 28.9975C20.6597 28.9975 21.2952 28.7344 21.764 28.266L22.916 27.116L15.88 20.08V20.082Z" fill="#3E4854"/>
</svg>
