<svg width="32" height="32" viewBox="0 0 32 32" fill="none" xmlns="http://www.w3.org/2000/svg">
<path d="M16.0001 2C8.269 2 2 8.26794 2 16.0001C2 22.1858 6.01144 27.4335 11.5741 29.2848C12.2738 29.4143 12.5307 28.9811 12.5307 28.6112C12.5307 28.2775 12.5176 27.1745 12.5117 26.0047C8.6168 26.8516 7.79492 24.3529 7.79492 24.3529C7.15808 22.7346 6.24048 22.3044 6.24048 22.3044C4.97031 21.4355 6.33622 21.4533 6.33622 21.4533C7.7421 21.5521 8.4824 22.896 8.4824 22.896C9.731 25.0364 11.7575 24.4175 12.5564 24.0599C12.682 23.155 13.0449 22.5374 13.4452 22.1878C10.3357 21.8337 7.06672 20.6333 7.06672 15.2689C7.06672 13.7405 7.61364 12.4915 8.5093 11.5111C8.3639 11.1584 7.88473 9.73454 8.6449 7.80612C8.6449 7.80612 9.8205 7.42983 12.4959 9.2412C13.6126 8.93091 14.8103 8.77543 16.0001 8.77016C17.1898 8.77543 18.3884 8.93091 19.5073 9.2412C22.1795 7.42983 23.3535 7.80612 23.3535 7.80612C24.1155 9.73454 23.6361 11.1584 23.4907 11.5111C24.3883 12.4915 24.9315 13.7404 24.9315 15.2689C24.9315 20.646 21.6564 21.8301 18.539 22.1766C19.0411 22.6111 19.4885 23.4632 19.4885 24.7692C19.4885 26.6424 19.4723 28.1501 19.4723 28.6112C19.4723 28.9838 19.7243 29.4204 20.434 29.2829C25.9936 27.4296 30 22.1837 30 16.0001C30 8.26794 23.7318 2 16.0001 2Z" fill="#3E4854"/>
</svg>
