<svg width="32" height="32" viewBox="0 0 32 32" fill="none" xmlns="http://www.w3.org/2000/svg">
<path d="M7.89474 29C6.78947 29 5.69649 28.735 4.61579 28.205C3.53509 27.675 2.66316 26.9764 2 26.1092C2.6386 26.1092 3.28947 25.8623 3.95263 25.3684C4.61579 24.8746 4.94737 24.1579 4.94737 23.2184C4.94737 22.0139 5.37719 20.99 6.23684 20.1469C7.09649 19.3037 8.14035 18.8821 9.36842 18.8821C10.5965 18.8821 11.6404 19.3037 12.5 20.1469C13.3596 20.99 13.7895 22.0139 13.7895 23.2184C13.7895 24.8083 13.2123 26.1694 12.0579 27.3016C10.9035 28.4339 9.51579 29 7.89474 29ZM7.89474 26.1092C8.70526 26.1092 9.39912 25.8261 9.97632 25.26C10.5535 24.6939 10.8421 24.0133 10.8421 23.2184C10.8421 22.8088 10.7009 22.4656 10.4184 22.1885C10.136 21.9115 9.78596 21.773 9.36842 21.773C8.95088 21.773 8.60088 21.9115 8.31842 22.1885C8.03596 22.4656 7.89474 22.8088 7.89474 23.2184C7.89474 23.7724 7.82719 24.2783 7.69211 24.736C7.55702 25.1938 7.37895 25.6274 7.15789 26.0369C7.2807 26.0851 7.40351 26.1092 7.52632 26.1092H7.89474ZM16.3684 20.3276L12.3158 16.3527L25.5053 3.41628C25.7754 3.15129 26.1132 3.01277 26.5184 3.00072C26.9237 2.98868 27.2737 3.1272 27.5684 3.41628L29.5579 5.36758C29.8526 5.65666 30 5.99392 30 6.37936C30 6.76481 29.8526 7.10207 29.5579 7.39115L16.3684 20.3276Z" fill="#3E4854"/>
</svg>
