<svg width="32" height="32" viewBox="0 0 32 32" fill="none" xmlns="http://www.w3.org/2000/svg">
<path d="M12.205 19.5239V12.4169H19.8588V19.5239H12.205ZM16.0319 29C13.7358 29 11.5831 28.5114 9.57403 27.5342C7.56492 26.5569 5.89066 25.1898 4.55125 23.4328V26.631H2V19.5239H9.65376V21.8929H6.52847C7.61276 23.3736 8.98937 24.5334 10.6583 25.3724C12.3273 26.2115 14.1185 26.631 16.0319 26.631C18.4768 26.631 20.6932 25.9795 22.6811 24.6765C24.6689 23.3736 26.0668 21.6462 26.8747 19.4943L29.3622 20.0273C28.4055 22.7122 26.7046 24.8789 24.2597 26.5273C21.8147 28.1758 19.0721 29 16.0319 29ZM2.06378 14.7859C2.2126 13.4632 2.55277 12.1948 3.08428 10.9806C3.61579 9.76651 4.34928 8.64617 5.28474 7.61959L7.10251 9.30752C6.42217 10.1169 5.8694 10.9806 5.44419 11.8986C5.01898 12.8166 4.75323 13.779 4.64692 14.7859H2.06378ZM8.88838 7.6492L7.07062 5.96128C8.19742 5.09263 9.40926 4.40661 10.7062 3.90319C12.003 3.39977 13.3531 3.09871 14.7563 3V5.36902C13.672 5.46773 12.6409 5.7145 11.6629 6.10934C10.6849 6.50418 9.76006 7.01746 8.88838 7.6492ZM23.2073 7.6492C22.3356 7.01746 21.4055 6.50418 20.4169 6.10934C19.4282 5.7145 18.3918 5.46773 17.3075 5.36902V3C18.732 3.11845 20.098 3.42445 21.4055 3.918C22.713 4.41154 23.9195 5.09263 25.0251 5.96128L23.2073 7.6492ZM27.4487 14.7859C27.3424 13.779 27.0767 12.8166 26.6515 11.8986C26.2263 10.9806 25.6735 10.1169 24.9932 9.30752L26.8109 7.61959C27.7464 8.64617 28.4799 9.76651 29.0114 10.9806C29.5429 12.1948 29.8724 13.4632 30 14.7859H27.4487Z" fill="#3E4854"/>
</svg>
