<svg width="32" height="32" viewBox="0 0 32 32" fill="none" xmlns="http://www.w3.org/2000/svg">
<path d="M25.45 12.1C27.8762 12.1 29.8589 13.8634 29.9928 16.0853L30 16.325V24.775C30 27.0279 28.1009 28.869 25.7082 28.9933L25.45 29H16.35C13.9238 29 11.9411 27.2366 11.8072 25.0147L11.8 24.775V16.325C11.8 14.0721 13.6991 12.231 16.0918 12.1067L16.35 12.1H25.45ZM11.45 3C16.3142 3 20.32 6.41255 20.8423 10.8H16.35C13.0639 10.8 10.4 13.2736 10.4 16.325V20.4964C5.67506 20.0114 2 16.2917 2 11.775C2 6.9287 6.23091 3 11.45 3Z" fill="#3E4854"/>
</svg>
