<svg width="32" height="32" viewBox="0 0 32 32" fill="none" xmlns="http://www.w3.org/2000/svg">
<path d="M16.1641 4.138C16.8756 3.40934 17.8407 3 18.8468 3C19.853 3 20.818 3.40934 21.5295 4.138L28.889 11.6765C29.6003 12.4054 30 13.3938 30 14.4245C30 15.4551 29.6003 16.4436 28.889 17.1724L18.4541 27.8612C17.7426 28.5901 16.7777 28.9998 15.7713 29H10.5368C9.53055 28.9998 8.56555 28.5901 7.85411 27.8612L3.11098 23.0026C2.39962 22.2738 2 21.2854 2 20.2547C2 19.224 2.39962 18.2356 3.11098 17.5067L16.1622 4.138H16.1641ZM17.4163 26.1762L7.37411 15.8898L4.45423 18.8807C4.09855 19.2452 3.89874 19.7394 3.89874 20.2547C3.89874 20.77 4.09855 21.2643 4.45423 21.6287L9.19737 26.4872C9.55309 26.8517 10.0356 27.0565 10.5387 27.0566H15.7732C16.2764 27.0565 16.7589 26.8517 17.1146 26.4872L17.4182 26.1762H17.4163Z" fill="white"/>
</svg>
