<svg width="32" height="32" viewBox="0 0 32 32" fill="none" xmlns="http://www.w3.org/2000/svg">
<path d="M26.9871 19.6368C26.8484 19.7332 23.974 22.7748 23.974 24.9095C23.974 27.1602 25.4036 28.5974 26.9871 28.6759C28.352 28.7421 30 27.3336 30 24.9095C30 22.6497 27.1256 19.7332 26.9871 19.6368ZM11.2982 28.6759C11.8676 29.2453 12.624 29.5586 13.4284 29.5586C14.2329 29.5586 14.9891 29.2453 15.5586 28.6759L26.1042 18.1302L25.0391 17.0652L13.4284 5.45443L9.97393 2L7.84376 4.13021L11.2982 7.58464L2.88282 16C2.31336 16.5695 2 17.3257 2 18.1302C2 18.9347 2.31336 19.691 2.88282 20.2605L11.2982 28.6759ZM13.4284 9.71485L21.8438 18.1302H5.01303L13.4284 9.71485Z" fill="white"/>
</svg>
