<svg width="152" height="42" viewBox="0 0 152 42" fill="none" xmlns="http://www.w3.org/2000/svg">
<path d="M13.3962 32.0967H7.52231V8.80848H0V3.81815H20.9185V8.80848H13.3962V32.0967Z" fill="#FAFAFA"/>
<path d="M36.5505 10.0657C36.841 10.0657 37.1758 10.0851 37.5547 10.1238C37.9463 10.1496 38.2621 10.1882 38.5021 10.2398L38.0663 15.7717C37.8768 15.7073 37.6053 15.6621 37.2516 15.6363C36.9105 15.5976 36.6136 15.5783 36.361 15.5783C35.6157 15.5783 34.8894 15.675 34.182 15.8684C33.4872 16.0619 32.862 16.3778 32.3062 16.8162C31.7504 17.2417 31.3082 17.8091 30.9798 18.5183C30.664 19.2147 30.5061 20.0722 30.5061 21.0909V32.0967H24.727V10.4719H29.104L29.9566 14.1083H30.2408C30.6577 13.3733 31.1756 12.7027 31.7946 12.0967C32.4262 11.4777 33.1399 10.9877 33.9357 10.6267C34.7441 10.2527 35.6157 10.0657 36.5505 10.0657Z" fill="#FAFAFA"/>
<path d="M39.3169 10.4719H45.6455L49.6435 22.6383C49.7698 23.0251 49.8772 23.4184 49.9656 23.8182C50.054 24.2179 50.1298 24.6305 50.193 25.0561C50.2561 25.4816 50.3067 25.9265 50.3446 26.3907H50.4582C50.534 25.6944 50.6351 25.0432 50.7614 24.4371C50.9004 23.831 51.0709 23.2314 51.273 22.6383L55.1952 10.4719H61.3912L52.4288 34.8626C51.8856 36.3584 51.1783 37.6028 50.3067 38.5957C49.4351 39.6015 48.4308 40.3559 47.2939 40.8588C46.1697 41.3617 44.9318 41.6131 43.5802 41.6131C42.9233 41.6131 42.3549 41.5744 41.8748 41.4971C41.3948 41.4326 40.9843 41.3617 40.6432 41.2843V36.6035C40.9085 36.6679 41.2432 36.726 41.6475 36.7775C42.0517 36.8291 42.4749 36.8549 42.917 36.8549C43.7254 36.8549 44.4202 36.6808 45.0012 36.3327C45.5823 35.9845 46.0686 35.5138 46.4602 34.9207C46.8518 34.3404 47.1613 33.7021 47.3887 33.0058L47.7297 31.9419L39.3169 10.4719Z" fill="#FAFAFA"/>
<path d="M70 0L70.2209 9.0019C70.2209 9.81428 70.1956 10.6202 70.1451 11.4197C70.1072 12.2192 70.0567 12.8381 69.9935 13.2766H70.2209C70.7767 12.3868 71.5346 11.6325 72.4946 11.0135C73.4547 10.3817 74.6989 10.0657 76.2274 10.0657C78.6022 10.0657 80.5285 11.0135 82.0065 12.9091C83.4844 14.8046 84.2234 17.5835 84.2234 21.2456C84.2234 23.7085 83.8823 25.7782 83.2002 27.4545C82.5181 29.118 81.5644 30.3752 80.3391 31.2263C79.1138 32.0644 77.6927 32.4835 76.0758 32.4835C74.5221 32.4835 73.2968 32.1998 72.3999 31.6325C71.503 31.0651 70.7767 30.4268 70.2209 29.7176L69.2482 29.666L68.8566 32.0967L65 32V0H70ZM74.3705 14.7853C73.3599 14.7853 72.5578 14.998 71.9641 15.4236C71.3704 15.8491 70.9346 16.4874 70.6567 17.3385C70.3914 18.1895 70.2462 19.2662 70.2209 20.5686V21.2069C70.2209 23.3088 70.5241 24.9207 71.1304 26.0425C71.7367 27.1515 72.842 27.706 74.4463 27.706C75.6337 27.706 76.5748 27.145 77.2695 26.0232C77.9769 24.9013 78.3306 23.283 78.3306 21.1682C78.3306 19.0535 77.9769 17.461 77.2695 16.3907C76.5621 15.3204 75.5958 14.7853 74.3705 14.7853Z" fill="#FAFAFA"/>
<path d="M94.7774 10.4719V32.0967H88.9983V10.4719H94.7774ZM91.8973 1.99997C92.7562 1.99997 93.4952 2.20629 94.1142 2.61893C94.7331 3.01867 95.0426 3.77302 95.0426 4.88198C95.0426 5.97805 94.7331 6.73885 94.1142 7.16438C93.4952 7.57702 92.7562 7.78334 91.8973 7.78334C91.0257 7.78334 90.2804 7.57702 89.6614 7.16438C89.0551 6.73885 88.7519 5.97805 88.7519 4.88198C88.7519 3.77302 89.0551 3.01867 89.6614 2.61893C90.2804 2.20629 91.0257 1.99997 91.8973 1.99997Z" fill="#FAFAFA"/>
<path d="M105.199 21.0522L98.3775 10.4719H104.933L109.045 17.3578L113.195 10.4719H119.751L112.854 21.0522L120.073 32.0967H113.498L109.045 24.6886L104.573 32.0967H98.0174L105.199 21.0522Z" fill="#FAFAFA"/>
<path d="M132.029 10.0657C133.987 10.0657 135.673 10.4526 137.088 11.2263C138.503 11.9871 139.595 13.096 140.366 14.5532C141.137 16.0103 141.522 17.7898 141.522 19.8917V22.7543H127.86C127.924 24.4178 128.41 25.7266 129.319 26.6808C130.241 27.6221 131.517 28.0928 133.147 28.0928C134.498 28.0928 135.736 27.951 136.861 27.6673C137.985 27.3836 139.141 26.9581 140.328 26.3907V30.9555C139.28 31.4842 138.181 31.871 137.031 32.116C135.894 32.361 134.511 32.4835 132.882 32.4835C130.759 32.4835 128.877 32.0838 127.235 31.2843C125.606 30.4848 124.323 29.2662 123.389 27.6286C122.467 25.9909 122.005 23.9278 122.005 21.439C122.005 18.9116 122.422 16.8098 123.256 15.1334C124.102 13.4442 125.277 12.1805 126.78 11.3423C128.284 10.4913 130.033 10.0657 132.029 10.0657ZM132.067 14.263C130.943 14.263 130.008 14.6305 129.263 15.3655C128.53 16.1005 128.107 17.2546 127.993 18.8278H136.103C136.09 17.951 135.932 17.1708 135.629 16.4874C135.338 15.804 134.896 15.2624 134.303 14.8626C133.722 14.4629 132.976 14.263 132.067 14.263Z" fill="#FAFAFA"/>
<path d="M152 32.0967H146.221V1.99997H152V32.0967Z" fill="#FAFAFA"/>
<path d="M70.0028 42L70 32C70 31.1876 70 30.5 70 29.7059C69.9621 28.9064 68.948 28.2476 68.8848 27.8091H69.1122C69.668 28.6989 70.4259 29.4532 71.386 30.0722C72.346 30.704 73.5902 31.02 75.1187 31.02C77.4935 31.02 79.4199 30.0722 80.8978 28.1766C82.3757 26.2811 83.1147 23.5022 83.1147 19.8401C83.1147 17.3771 82.7736 15.3075 82.0915 13.6312C81.4094 11.9677 80.4557 10.7105 79.2304 9.85942C78.0051 9.02125 76.584 8.60216 74.9671 8.60216C73.4134 8.60216 72.1881 8.88585 71.2912 9.45323C70.3944 10.0206 69.668 10.6589 69.1122 11.3681H68.7143L67.748 8.98901L65 10V42H70.0028ZM73.2618 26.3004C72.2512 26.3004 71.4491 26.0877 70.8554 25.6621C70.2617 25.2366 69.8259 24.5983 69.548 23.7472C69.2827 22.8962 69.1375 21.8194 69.1122 20.5171V19.8788C69.1122 17.7769 69.4154 16.165 70.0217 15.0432C70.628 13.9342 71.7333 13.3797 73.3376 13.3797C74.525 13.3797 75.4661 13.9407 76.1608 15.0625C76.8682 16.1844 77.2219 17.8027 77.2219 19.9174C77.2219 22.0322 76.8682 23.6247 76.1608 24.695C75.4534 25.7653 74.4871 26.3004 73.2618 26.3004Z" fill="#FAFAFA"/>
</svg>
