<svg width="164" height="48" viewBox="0 0 164 48" fill="none" xmlns="http://www.w3.org/2000/svg">
<path d="M19.3962 35.0967H13.5223V11.8085H6V6.81815H26.9185V11.8085H19.3962V35.0967Z" fill="#3E4854"/>
<path d="M42.5505 13.0657C42.841 13.0657 43.1758 13.0851 43.5547 13.1238C43.9463 13.1496 44.2621 13.1882 44.5021 13.2398L44.0663 18.7717C43.8768 18.7073 43.6053 18.6621 43.2516 18.6363C42.9105 18.5976 42.6136 18.5783 42.361 18.5783C41.6157 18.5783 40.8894 18.675 40.182 18.8684C39.4872 19.0619 38.862 19.3778 38.3062 19.8162C37.7504 20.2417 37.3082 20.8091 36.9798 21.5183C36.664 22.2147 36.5061 23.0722 36.5061 24.0909V35.0967H30.727V13.4719H35.104L35.9566 17.1083H36.2408C36.6577 16.3733 37.1756 15.7027 37.7946 15.0967C38.4262 14.4777 39.1399 13.9877 39.9357 13.6267C40.7441 13.2527 41.6157 13.0657 42.5505 13.0657Z" fill="#3E4854"/>
<path d="M45.3169 13.4719H51.6455L55.6435 25.6383C55.7698 26.0251 55.8772 26.4184 55.9656 26.8182C56.054 27.2179 56.1298 27.6305 56.193 28.0561C56.2561 28.4816 56.3067 28.9265 56.3446 29.3907H56.4582C56.534 28.6944 56.6351 28.0432 56.7614 27.4371C56.9004 26.831 57.0709 26.2314 57.273 25.6383L61.1952 13.4719H67.3912L58.4288 37.8626C57.8856 39.3584 57.1783 40.6028 56.3067 41.5957C55.4351 42.6015 54.4308 43.3559 53.2939 43.8588C52.1697 44.3617 50.9318 44.6131 49.5802 44.6131C48.9233 44.6131 48.3549 44.5744 47.8748 44.4971C47.3948 44.4326 46.9843 44.3617 46.6432 44.2843V39.6035C46.9085 39.6679 47.2432 39.726 47.6475 39.7775C48.0517 39.8291 48.4749 39.8549 48.917 39.8549C49.7254 39.8549 50.4202 39.6808 51.0012 39.3327C51.5823 38.9845 52.0686 38.5138 52.4602 37.9207C52.8518 37.3404 53.1613 36.7021 53.3887 36.0058L53.7297 34.9419L45.3169 13.4719Z" fill="#3E4854"/>
<path d="M76 3L76.2209 12.0019C76.2209 12.8143 76.1956 13.6202 76.1451 14.4197C76.1072 15.2192 76.0567 15.8381 75.9935 16.2766H76.2209C76.7767 15.3868 77.5346 14.6325 78.4946 14.0135C79.4547 13.3817 80.6989 13.0657 82.2274 13.0657C84.6022 13.0657 86.5285 14.0135 88.0065 15.9091C89.4844 17.8046 90.2234 20.5835 90.2234 24.2456C90.2234 26.7085 89.8823 28.7782 89.2002 30.4545C88.5181 32.118 87.5644 33.3752 86.3391 34.2263C85.1138 35.0644 83.6927 35.4835 82.0758 35.4835C80.5221 35.4835 79.2968 35.1998 78.3999 34.6325C77.503 34.0651 76.7767 33.4268 76.2209 32.7176L75.2482 32.666L74.8566 35.0967L71 35V3H76ZM80.3705 17.7853C79.3599 17.7853 78.5578 17.998 77.9641 18.4236C77.3704 18.8491 76.9346 19.4874 76.6567 20.3385C76.3914 21.1895 76.2462 22.2662 76.2209 23.5686V24.2069C76.2209 26.3088 76.5241 27.9207 77.1304 29.0425C77.7367 30.1515 78.842 30.706 80.4463 30.706C81.6337 30.706 82.5748 30.145 83.2695 29.0232C83.9769 27.9013 84.3306 26.283 84.3306 24.1682C84.3306 22.0535 83.9769 20.461 83.2695 19.3907C82.5621 18.3204 81.5958 17.7853 80.3705 17.7853Z" fill="#3E4854"/>
<path d="M100.777 13.4719V35.0967H94.9983V13.4719H100.777ZM97.8973 4.99997C98.7562 4.99997 99.4952 5.20629 100.114 5.61893C100.733 6.01867 101.043 6.77302 101.043 7.88198C101.043 8.97805 100.733 9.73885 100.114 10.1644C99.4952 10.577 98.7562 10.7833 97.8973 10.7833C97.0257 10.7833 96.2804 10.577 95.6614 10.1644C95.0551 9.73885 94.7519 8.97805 94.7519 7.88198C94.7519 6.77302 95.0551 6.01867 95.6614 5.61893C96.2804 5.20629 97.0257 4.99997 97.8973 4.99997Z" fill="#3E4854"/>
<path d="M111.199 24.0522L104.377 13.4719H110.933L115.045 20.3578L119.195 13.4719H125.751L118.854 24.0522L126.073 35.0967H119.498L115.045 27.6886L110.573 35.0967H104.017L111.199 24.0522Z" fill="#3E4854"/>
<path d="M138.029 13.0657C139.987 13.0657 141.673 13.4526 143.088 14.2263C144.503 14.9871 145.595 16.096 146.366 17.5532C147.137 19.0103 147.522 20.7898 147.522 22.8917V25.7543H133.86C133.924 27.4178 134.41 28.7266 135.319 29.6808C136.241 30.6221 137.517 31.0928 139.147 31.0928C140.498 31.0928 141.736 30.951 142.861 30.6673C143.985 30.3836 145.141 29.9581 146.328 29.3907V33.9555C145.28 34.4842 144.181 34.871 143.031 35.116C141.894 35.361 140.511 35.4835 138.882 35.4835C136.759 35.4835 134.877 35.0838 133.235 34.2843C131.606 33.4848 130.323 32.2662 129.389 30.6286C128.467 28.9909 128.005 26.9278 128.005 24.439C128.005 21.9116 128.422 19.8098 129.256 18.1334C130.102 16.4442 131.277 15.1805 132.78 14.3423C134.284 13.4913 136.033 13.0657 138.029 13.0657ZM138.067 17.263C136.943 17.263 136.008 17.6305 135.263 18.3655C134.53 19.1005 134.107 20.2546 133.993 21.8278H142.103C142.09 20.951 141.932 20.1708 141.629 19.4874C141.338 18.804 140.896 18.2624 140.303 17.8626C139.722 17.4629 138.976 17.263 138.067 17.263Z" fill="#3E4854"/>
<path d="M158 35.0967H152.221V4.99997H158V35.0967Z" fill="#3E4854"/>
<path d="M76.0028 45L76 35C76 34.1876 76 33.5 76 32.7059C75.9621 31.9064 74.948 31.2476 74.8848 30.8091H75.1122C75.668 31.6989 76.4259 32.4532 77.386 33.0722C78.346 33.704 79.5902 34.02 81.1187 34.02C83.4935 34.02 85.4199 33.0722 86.8978 31.1766C88.3757 29.2811 89.1147 26.5022 89.1147 22.8401C89.1147 20.3771 88.7736 18.3075 88.0915 16.6312C87.4094 14.9677 86.4557 13.7105 85.2304 12.8594C84.0051 12.0212 82.584 11.6022 80.9671 11.6022C79.4134 11.6022 78.1881 11.8858 77.2912 12.4532C76.3944 13.0206 75.668 13.6589 75.1122 14.3681H74.7143L73.748 11.989L71 13V45H76.0028ZM79.2618 29.3004C78.2512 29.3004 77.4491 29.0877 76.8554 28.6621C76.2617 28.2366 75.8259 27.5983 75.548 26.7472C75.2827 25.8962 75.1375 24.8194 75.1122 23.5171V22.8788C75.1122 20.7769 75.4154 19.165 76.0217 18.0432C76.628 16.9342 77.7333 16.3797 79.3376 16.3797C80.525 16.3797 81.4661 16.9407 82.1608 18.0625C82.8682 19.1844 83.2219 20.8027 83.2219 22.9174C83.2219 25.0322 82.8682 26.6247 82.1608 27.695C81.4534 28.7653 80.4871 29.3004 79.2618 29.3004Z" fill="#3E4854"/>
</svg>
